# xmcd CD database file
#
# Track frame offsets:
#	150
#	26366
#	56612
#	83424
#	101775
#	104707
#	124650
#	139086
#	167660
#	191687
#	209483
#
# Disc length: 3120 seconds
#
# Revision: 0
# Processed by: cddbd v1.4PL0 Copyright (c) Steve Scherf et al.
# Submitted via: CDex 1.50beta8
#
DISCID=960c2e0b
DTITLE=Stéphane Bertrand - Esmak ?
DYEAR=1998
DGENRE=Jazz
TTITLE0=Esmak-eh ?
TTITLE1=Portrait de Zahia
TTITLE2=M. Destouche et son voyage
TTITLE3=En attendant Chloé
TTITLE4=Orage à Macondo
TTITLE5=100 ans Gabriel,
TTITLE6=100 ans
TTITLE7=Laureline
TTITLE8=2, place de îles
TTITLE9=Lady death
TTITLE10=Et après nous?
EXTD=YEAR: 1998
EXTT0=
EXTT1=
EXTT2=
EXTT3=
EXTT4=
EXTT5=
EXTT6=
EXTT7=
EXTT8=
EXTT9=
EXTT10=
PLAYORDER=
